<svg width="420" height="63" viewBox="0 0 420 63" fill="none" xmlns="http://www.w3.org/2000/svg">
<path d="M13.576 53.64C8.712 53.64 5.29867 52.2107 3.336 49.352C1.416 46.4933 0.456 42.5253 0.456 37.448V16.84C0.456 11.6347 1.416 7.64533 3.336 4.872C5.29867 2.056 8.712 0.647999 13.576 0.647999C18.0133 0.647999 21.1707 1.90666 23.048 4.424C24.9253 6.94133 25.864 10.5893 25.864 15.368V18.504H21.256V15.496C21.256 13.0213 21.064 11.016 20.68 9.48C20.296 7.90133 19.5493 6.68533 18.44 5.832C17.3307 4.97866 15.7307 4.552 13.64 4.552C11.3787 4.552 9.65067 5.02133 8.456 5.96C7.26133 6.89866 6.45067 8.2 6.024 9.864C5.59733 11.4853 5.384 13.576 5.384 16.136V38.216C5.384 42.2267 5.98133 45.1493 7.176 46.984C8.41333 48.8187 10.568 49.736 13.64 49.736C16.6693 49.736 18.696 48.8187 19.72 46.984C20.744 45.1067 21.256 42.2693 21.256 38.472V35.08H25.864V38.152C25.864 43.1013 24.9467 46.92 23.112 49.608C21.2773 52.296 18.0987 53.64 13.576 53.64ZM32.5855 1.16H37.2575V19.912C40.0308 16.9253 43.0388 15.432 46.2815 15.432C48.1162 15.432 49.5242 16.1147 50.5055 17.48C51.4868 18.8453 51.9775 20.7867 51.9775 23.304V53H47.2415V24.328C47.2415 22.4507 46.9428 21.1067 46.3455 20.296C45.7908 19.4853 44.9162 19.08 43.7215 19.08C42.6975 19.08 41.6095 19.4 40.4575 20.04C39.3482 20.68 38.2815 21.5333 37.2575 22.6V53H32.5855V1.16ZM65.2965 53.576C63.0778 53.576 61.2858 52.7867 59.9205 51.208C58.5552 49.6293 57.8725 47.6667 57.8725 45.32C57.8725 42.888 58.3418 40.8827 59.2805 39.304C60.2618 37.7253 61.7552 36.3173 63.7605 35.08C65.7658 33.8427 68.7738 32.328 72.7845 30.536V27.912C72.7845 25.608 72.6352 23.816 72.3365 22.536C72.0805 21.256 71.6112 20.3387 70.9285 19.784C70.2885 19.2293 69.3712 18.952 68.1765 18.952C64.7205 18.952 62.9925 21.064 62.9925 25.288V26.568L58.3845 26.504C58.4272 22.7067 59.2378 19.912 60.8165 18.12C62.3952 16.328 64.9338 15.432 68.4325 15.432C71.6752 15.432 73.9792 16.4133 75.3445 18.376C76.7525 20.3387 77.4565 23.432 77.4565 27.656V45.64C77.4565 46.8347 77.4778 48.2 77.5205 49.736C77.6058 51.272 77.6912 52.36 77.7765 53H73.6165L72.9125 47.88C72.3578 49.5013 71.3978 50.8667 70.0325 51.976C68.7098 53.0427 67.1312 53.576 65.2965 53.576ZM66.7685 49.608C68.0485 49.608 69.2005 49.1813 70.2245 48.328C71.2912 47.432 72.1445 46.3867 72.7845 45.192V33.672C69.8832 35.208 67.7712 36.4027 66.4485 37.256C65.1685 38.1093 64.1872 39.0693 63.5045 40.136C62.8645 41.16 62.5445 42.504 62.5445 44.168C62.5445 46.0027 62.9285 47.368 63.6965 48.264C64.5072 49.16 65.5312 49.608 66.7685 49.608ZM84.654 16.008H89.39V21.064C90.4993 19.2293 91.8007 17.864 93.294 16.968C94.83 16.072 96.366 15.624 97.902 15.624C98.2007 15.624 98.478 15.6453 98.734 15.688V20.68C97.966 20.424 97.198 20.296 96.43 20.296C93.486 20.296 91.1393 21.7253 89.39 24.584V53H84.654V16.008ZM103.974 1.16H108.646V53H103.974V1.16ZM115.248 58.568C118.234 58.568 120.24 58.248 121.264 57.608C122.288 56.968 122.8 56.008 122.8 54.728C122.8 53.9173 122.608 52.7653 122.224 51.272C121.882 49.736 121.669 48.84 121.584 48.584L113.968 16.008H118.64L125.04 47.496L131.248 16.008H135.984L127.024 55.624C126.469 57.9707 125.36 59.656 123.696 60.68C122.032 61.704 119.621 62.216 116.464 62.216H115.248V58.568ZM155.72 1.16H168.583C173.064 1.16 176.306 2.376 178.312 4.808C180.36 7.24 181.384 10.8027 181.384 15.496C181.384 19.72 180.296 23.0053 178.12 25.352C175.944 27.6987 172.786 28.872 168.648 28.872H162.952V53H155.72V1.16ZM166.28 23.688C168.413 23.688 170.056 23.4533 171.208 22.984C172.402 22.5147 173.256 21.704 173.768 20.552C174.28 19.4 174.536 17.736 174.536 15.56C174.536 12.9147 174.344 10.9733 173.96 9.736C173.576 8.49866 172.808 7.624 171.656 7.112C170.546 6.6 168.776 6.344 166.344 6.344H162.952V23.688H166.28ZM199.718 53.576C194.64 53.576 190.992 52.1467 188.774 49.288C186.598 46.3867 185.51 42.2053 185.51 36.744V17.096C185.51 11.72 186.619 7.64533 188.838 4.872C191.056 2.09866 194.683 0.711998 199.718 0.711998C204.752 0.711998 208.358 2.12 210.534 4.936C212.752 7.70933 213.862 11.7627 213.862 17.096V36.808C213.862 42.184 212.752 46.3227 210.534 49.224C208.315 52.1253 204.71 53.576 199.718 53.576ZM199.718 47.88C202.406 47.88 204.219 47.0907 205.158 45.512C206.096 43.9333 206.566 41.544 206.566 38.344V15.624C206.566 12.4667 206.096 10.1413 205.158 8.648C204.219 7.112 202.406 6.344 199.718 6.344C196.987 6.344 195.152 7.112 194.214 8.648C193.275 10.1413 192.806 12.4667 192.806 15.624V38.344C192.806 41.544 193.275 43.9333 194.214 45.512C195.152 47.0907 196.987 47.88 199.718 47.88ZM220.97 1.16H225.898L240.618 35.592V1.16H246.634V53H242.026L227.114 17.608V53H220.97V1.16ZM260.478 6.536H251.71V1.16H276.222V6.536H267.71V53H260.478V6.536ZM281.22 1.16H288.452V23.56H301.764V1.16H308.996V53H301.764V28.744H288.452V53H281.22V1.16ZM317.479 1.16H324.583V53H317.479V1.16ZM332.97 1.16H353.066V6.536H340.202V23.688H350.634V28.808H340.202V47.816H353.194V53H332.97V1.16ZM372.408 53.576C368.781 53.576 365.944 52.8507 363.896 51.4C361.891 49.9493 360.504 47.9227 359.736 45.32C358.968 42.7173 358.584 39.4533 358.584 35.528V1.16H365.496V35.848C365.496 39.7733 365.944 42.76 366.84 44.808C367.779 46.856 369.635 47.88 372.408 47.88C375.181 47.88 377.016 46.856 377.912 44.808C378.851 42.76 379.32 39.7733 379.32 35.848V1.16H386.168V35.528C386.168 39.4533 385.784 42.7173 385.016 45.32C384.248 47.9227 382.861 49.9493 380.856 51.4C378.851 52.8507 376.035 53.576 372.408 53.576ZM401.398 25.864L390.774 1.16H397.494L405.366 19.464L412.534 1.16H419.254L408.374 26.44L419.766 53H413.046L404.598 33.48L397.302 53H390.582L401.398 25.864Z" fill="white"/>
</svg>
